<svg id="caps_copy" data-name="caps copy" xmlns="http://www.w3.org/2000/svg" width="2100" height="840" viewBox="0 0 2100 840">
  <defs>
    <style>
      .cls-1 {
        fill: #1b203e;
      }

      .cls-1, .cls-2, .cls-3, .cls-4 {
        fill-rule: evenodd;
      }

      .cls-2 {
        fill: #399;
      }

      .cls-3 {
        fill: #9c3;
      }

      .cls-4 {
        fill: #8a2be2;
      }
    </style>
  </defs>
  <path id="Foundation" class="cls-1" d="M911.665,712V653.251h44.791V618.669H911.665V592.42h46.458V557.837H873.958V712h37.707Zm181.255-58.332c0-35-27.5-61.04-62.3-61.04-34.578,0-62.285,25.624-62.285,61.457,0,35.416,27.082,61.457,62.285,61.457C1065.42,715.542,1092.92,689.917,1092.92,653.668Zm-62.3,29.583c-15.62,0-27.7-13.333-27.7-29.166s12.29-29.166,27.5-29.166c16.25,0,27.91,13.749,27.91,29.166S1046.87,683.251,1030.62,683.251ZM1219.58,712V596.378H1185v64.165c0,14.166-6.67,22.916-19.79,22.916s-18.55-7.083-18.55-22.291v-64.79h-34.58v71.873c0,32.916,20.21,47.5,44.58,47.5,15.63,0,24.79-5.417,29.79-16.041h0.42V712h32.71Zm132.08,0V638.252c0-34.166-22.08-45.832-42.92-45.832-13.95,0-24.16,4.374-31.45,16.249h-0.42V596.378h-32.29V712h34.58V648.252c0-15.625,5.83-23.333,19.79-23.333,12.71,0,18.13,7.291,18.13,22.916V712h34.58Zm145,0V557.837h-34.59v48.332c-9.79-9.791-20.62-13.749-33.95-13.749-33.75,0-57.29,26.874-57.29,61.456,0,35,22.91,61.874,57.91,61.874,16.46,0,28.13-5.625,34.58-16.25h0.42V712h32.92Zm-62.29-28.541c-16.67,0-28.96-12.291-28.96-29.791,0-16.874,12.92-28.958,29.17-28.958,17.08,0,29.37,12.917,29.37,28.958C1463.95,670.751,1451.24,683.459,1434.37,683.459ZM1643.11,712V596.378h-34.58v12.291h-0.41c-6.67-10.625-19.8-16.249-33.96-16.249-33.13,0-57.92,27.5-57.92,61.665,0,35,23.75,61.873,57.92,61.873,15.21,0,28.96-6.25,33.96-16.458h0.41V712h34.58Zm-63.54-28.333a28.89,28.89,0,0,1-28.74-29.166c0-16.666,12.5-29.791,28.33-29.791a29.337,29.337,0,0,1,29.37,29.375C1608.53,670.751,1595.82,683.667,1579.57,683.667ZM1710.82,712V622.627h16.67V596.378h-16.67V557.837h-34.58v38.541h-17.08v26.249h17.08V712h34.58Zm66.25-127.914V557.837h-34.58v26.249h34.58Zm0,127.914V596.378h-34.58V712h34.58Zm144.17-58.332c0-35-27.5-61.04-62.29-61.04-34.59,0-62.3,25.624-62.3,61.457,0,35.416,27.09,61.457,62.3,61.457C1893.74,715.542,1921.24,689.917,1921.24,653.668Zm-62.29,29.583c-15.63,0-27.71-13.333-27.71-29.166s12.29-29.166,27.5-29.166c16.25,0,27.91,13.749,27.91,29.166S1875.19,683.251,1858.95,683.251ZM2047.9,712V638.252c0-34.166-22.08-45.832-42.92-45.832-13.95,0-24.16,4.374-31.45,16.249h-0.42V596.378h-32.29V712h34.58V648.252c0-15.625,5.83-23.333,19.79-23.333,12.71,0,18.13,7.291,18.13,22.916V712h34.58Z"/>
  <path id="Youth_F_ilm_" data-name="Youth F ilm " class="cls-1" d="M933.29,500V443.96l45.623-98.123h-42.29L913.5,407.711l-22.916-61.874H847.875l46.04,98.123V500H933.29Zm160.62-58.332c0-35-27.5-61.04-62.29-61.04-34.579,0-62.287,25.624-62.287,61.457,0,35.416,27.083,61.457,62.287,61.457C1066.41,503.542,1093.91,477.917,1093.91,441.668Zm-62.29,29.583c-15.62,0-27.7-13.333-27.7-29.166s12.29-29.166,27.49-29.166c16.25,0,27.92,13.749,27.92,29.166S1047.87,471.251,1031.62,471.251ZM1220.58,500V384.378h-34.59v64.165c0,14.166-6.66,22.916-19.79,22.916s-18.54-7.083-18.54-22.291v-64.79h-34.58v71.873c0,32.916,20.21,47.5,44.58,47.5,15.63,0,24.79-5.417,29.79-16.041h0.42V500h32.71Zm67.49,0V410.627h16.67V384.378h-16.67V345.837h-34.58v38.541h-17.08v26.249h17.08V500h34.58Zm138.75,0V427.293c0-30.207-16.04-46.873-42.5-46.873-13.75,0-25,5.624-30,15V345.837h-34.58V500h34.58V435c0-14.375,6.25-22.083,19.38-22.083,12.71,0,18.54,8.541,18.54,23.541V500h34.58Zm128.12,0V441.251h44.79V406.669h-44.79V380.42h46.46V345.837h-84.16V500h37.7Zm106.88-127.914V345.837h-34.59v26.249h34.59Zm0,127.914V384.378h-34.59V500h34.59Zm60.62,0V345.837h-34.58V500h34.58Zm202.49,0V428.543c0-32.29-17.08-48.123-42.91-48.123-15.83,0-28.33,7.5-36.67,20.624-7.29-13.125-18.33-20.624-33.33-20.624-14.79,0-25.83,5.416-31.87,16.249h-0.42V384.378h-32.29V500h34.58V437.71c0-16.041,6.04-24.791,19.58-24.791,11.88,0,17.29,8.333,17.29,23.333V500h34.59V436.043c0-15.208,6.04-23.124,19.16-23.124,11.88,0,17.71,6.666,17.71,24.791V500h34.58Z"/>
  <path id="Scottish" class="cls-1" d="M965.331,176.836c-0.209-20.624-8.125-32.916-24.583-41.457a58.619,58.619,0,0,0-27.291-6.458c-28.333,0-53.749,19.166-53.749,45.415,0,20,11.458,33.333,36.666,43.541,13.958,5.625,31.041,11.041,31.041,23.332A14.715,14.715,0,0,1,912.624,256c-9.792,0-16.042-8.333-16.25-21.041H857.208v3.333c0,33.124,22.083,50.624,55.624,50.624,33.332,0,53.749-17.5,53.749-47.291,0-20.208-8.542-32.5-42.5-47.082-16.875-7.292-25.208-11.458-25.208-20.625,0-6.874,6.25-12.083,13.541-12.083,7.708,0,12.292,3.959,13.958,15h38.958ZM1103.66,214.96c-6.46-29.374-31.25-48.54-61.66-48.54-33.33,0-60.626,26.874-60.626,61.456,0,34.166,27.086,61.874,61.246,61.874,29.59,0,54.38-18.75,61.25-47.707h-35.21c-5.2,10-13.33,15.416-25,15.416-16.04,0-27.49-12.5-27.49-29.374,0-16.25,10.83-29.375,26.66-29.375,11.88,0,20.83,5.417,25.83,16.25h35Zm138.33,12.708c0-35-27.49-61.04-62.29-61.04-34.58,0-62.29,25.624-62.29,61.457,0,35.416,27.09,61.457,62.29,61.457C1214.5,289.542,1241.99,263.917,1241.99,227.668Zm-62.29,29.583c-15.62,0-27.7-13.333-27.7-29.166s12.29-29.166,27.5-29.166c16.25,0,27.91,13.749,27.91,29.166S1195.95,257.251,1179.7,257.251ZM1299.91,286V196.627h16.67V170.378h-16.67V131.837h-34.58v38.541h-17.09v26.249h17.09V286h34.58Zm77.29,0V196.627h16.67V170.378H1377.2V131.837h-34.58v38.541h-17.08v26.249h17.08V286h34.58Zm66.25-127.914V131.837h-34.58v26.249h34.58Zm0,127.914V170.378h-34.58V286h34.58Zm108.12-83.123c-1.66-22.708-19.37-36.457-44.37-36.457-23.33,0-44.79,14.791-44.79,37.707,0,13.541,7.71,25,36.87,33.958,17.3,5.416,21.25,8.749,21.25,15.207,0,5.417-6.04,8.959-12.08,8.959-6.87,0-12.08-3.334-13.12-10.625h-34.38c2.5,23.541,21.04,38.332,47.08,38.332,26.25,0,47.09-15.208,47.09-39.374,0-16.874-8.96-27.916-36.46-35.207-16.04-4.167-21.67-7.292-21.67-13.542,0-4.375,4.17-7.708,10-7.708,5.63,0,10.42,2.084,10.63,8.75h33.95ZM1679.49,286V213.293c0-30.207-16.04-46.873-42.5-46.873-13.75,0-25,5.624-30,15V131.837h-34.58V286h34.58V221c0-14.375,6.25-22.083,19.38-22.083,12.7,0,18.54,8.541,18.54,23.541V286h34.58Z"/>
  <path id="Shape_14_copy_5" data-name="Shape 14 copy 5" class="cls-2" d="M174.638,705.622L407.355,472.905,640.072,705.622C523.713,821.981,291,821.981,174.638,705.622Z"/>
  <path id="Shape_14_copy_4" data-name="Shape 14 copy 4" class="cls-3" d="M686.615,659.079L453.9,426.361,686.615,193.644C802.974,310,802.974,542.72,686.615,659.079Z"/>
  <path id="Shape_14_copy_3" data-name="Shape 14 copy 3" class="cls-4" d="M640.072,147.1L407.355,379.818,174.638,147.1C291,30.743,523.713,30.742,640.072,147.1Z"/>
  <path id="Shape_14_copy_2" data-name="Shape 14 copy 2" class="cls-3" d="M128.094,193.644L360.811,426.361,128.094,659.079C11.736,542.72,11.736,310,128.094,193.644Z"/>
</svg>
